<svg width="342" height="510" viewBox="0 0 342 510" fill="none" xmlns="http://www.w3.org/2000/svg">
<path d="M46.0936 0C55.0512 0 62.4141 2.09035 68.1823 6.27106C73.9504 10.3743 76.9024 16.4906 77.0381 24.6197V26.0133H55.9673V25.5488C55.9673 23.2262 55.2209 21.2906 53.7279 19.7422C52.235 18.1938 49.9617 17.4196 46.9079 17.4196C43.9221 17.4196 41.6148 17.9229 39.9861 18.9293C38.4253 19.9358 37.6449 21.1745 37.6449 22.6455C37.6449 24.7359 38.7307 26.2843 40.9022 27.2907C43.0738 28.2972 46.5686 29.3424 51.3867 30.4263C57.0192 31.7424 61.6337 33.136 65.2303 34.607C68.8948 36.0005 72.0843 38.3232 74.7987 41.5748C77.5131 44.8265 78.9043 49.2394 78.9721 54.8137C78.9721 64.259 76.1559 71.2656 70.5235 75.8334C64.9589 80.4012 57.4942 82.6851 48.1294 82.6851C37.2038 82.6851 28.6873 80.5947 22.5798 76.414C16.5402 72.2333 13.5204 64.8397 13.5204 54.2331H34.7948C34.7948 58.2589 35.7109 60.9687 37.5431 62.3622C39.3754 63.6784 42.2255 64.3364 46.0936 64.3364C48.9437 64.3364 51.2849 63.9881 53.1172 63.2913C55.0173 62.5945 55.9673 61.1622 55.9673 58.9944C55.9673 57.0589 54.9155 55.6266 52.8118 54.6976C50.776 53.6911 47.4169 52.6459 42.7345 51.5621C37.0342 50.1685 32.3179 48.7362 28.5855 47.2652C24.8532 45.7168 21.5959 43.2006 18.8136 39.7167C16.0313 36.2328 14.6401 31.5101 14.6401 25.5488C14.6401 16.8003 17.5921 10.3743 23.496 6.27106C29.4677 2.09035 37.0003 0 46.0936 0Z" fill="#2D4E71"/>
<path d="M130.446 21.8326V81.2915H107.95V21.8326H84.9452V1.39357H153.349V21.8326H130.446Z" fill="#2D4E71"/>
<path d="M203.564 81.2915L200.612 70.0269H176.081L173.129 81.2915H150.124L175.674 1.39357H201.834L227.384 81.2915H203.564ZM180.763 52.1427H195.93L188.601 23.6907H188.194L180.763 52.1427Z" fill="#2D4E71"/>
<path d="M270.681 81.2915H248.186V50.2846L220.397 1.39357H246.251L259.688 27.9875H260.095L273.531 1.39357H298.063L270.681 50.2846V81.2915Z" fill="#2D4E71"/>
<path d="M56.9852 112.626V172.085H34.4894V112.626H11.4846V92.1867H79.8882V112.626H56.9852Z" fill="#2D4E71"/>
<path d="M50.0634 181.586C60.4461 181.586 68.6573 184.567 74.6969 190.528C80.7365 196.412 83.7563 204.851 83.7563 215.845H62.2784C62.2784 211.2 61.1926 207.522 59.0211 204.812C56.9174 202.103 53.8976 200.748 49.9617 200.748C45.415 200.748 42.0559 202.374 39.8843 205.625C37.7807 208.877 36.7288 213.406 36.7288 219.213V226.645C36.7288 232.374 37.7807 236.903 39.8843 240.232C42.0559 243.484 45.3471 245.11 49.7581 245.11C54.1012 245.11 57.3924 243.832 59.6318 241.277C61.8712 238.723 62.9909 235.123 62.9909 230.477H83.7563C83.7563 241.394 80.8044 249.755 74.9005 255.562C69.0645 261.368 60.7854 264.271 50.0634 264.271C38.12 264.271 29.0606 260.787 22.8852 253.82C16.7778 246.852 13.724 236.555 13.724 222.929C13.724 209.303 16.7778 199.006 22.8852 192.038C29.0606 185.07 38.12 181.586 50.0634 181.586Z" fill="#2D4E71"/>
<path d="M143.133 262.878V232.568H118.398V262.878H95.902V182.98H118.398V212.129H143.133V182.98H165.629V262.878H143.133Z" fill="#2D4E71"/>
<path d="M227.621 262.878L224.669 251.613H200.137L197.185 262.878H174.18L199.73 182.98H225.89L251.44 262.878H227.621ZM204.819 233.729H219.986L212.657 205.277H212.25L204.819 233.729Z" fill="#2D4E71"/>
<path d="M291.305 204.675V264.271H268.975V204.675H246.14V184.189H314.04V204.675H291.305Z" fill="#99CEEB"/>
<path d="M121.272 91.0935C133.392 91.0935 142.755 94.5905 149.36 101.585C155.965 108.579 159.267 118.762 159.267 132.136C159.267 145.509 155.965 155.693 149.36 162.687C142.755 169.681 133.392 173.178 121.272 173.178C109.152 173.178 99.789 169.719 93.1841 162.802C86.6473 155.808 83.3789 145.586 83.3789 132.136C83.3789 118.686 86.6473 108.502 93.1841 101.585C99.789 94.5905 109.152 91.0935 121.272 91.0935ZM121.272 110.116C116.438 110.116 112.761 111.768 110.241 115.073C107.722 118.378 106.462 122.836 106.462 128.446V135.825C106.462 141.435 107.722 145.893 110.241 149.198C112.761 152.503 116.438 154.155 121.272 154.155C126.107 154.155 129.784 152.503 132.303 149.198C134.89 145.893 136.184 141.435 136.184 135.825V128.446C136.184 122.836 134.89 118.378 132.303 115.073C129.784 111.768 126.107 110.116 121.272 110.116Z" fill="#8DE3DC"/>
<path d="M106.944 421.913C109.851 419.264 112.229 416.879 112.229 416.879L155.428 393.888H198.765L222.421 414.495C222.421 414.495 223.893 417.22 225.856 418.204C234.84 422.707 241.446 422.443 241.446 438.337C241.446 454.232 225.327 453.172 223.478 456.351C221.628 459.53 222.421 468.537 216.607 473.835C210.794 479.133 206.422 478.343 202.073 483.637C195.82 491.251 196.788 505.624 195.467 508.008C194.146 510.392 117.25 510.922 115.4 508.008C113.55 505.094 116.769 491.322 112.229 487.08C107.688 482.839 106.992 482.05 102.452 477.809C97.911 473.567 100.879 467.116 98.4879 459.53C95.6465 450.515 82.8972 453.172 85.8039 437.542C88.7107 421.913 104.037 424.562 106.944 421.913Z" fill="#FFA9A3"/>
<path d="M130.726 451.053C129.141 446.549 129.405 452.113 134.954 453.967C140.504 455.821 157.151 445.225 150.017 449.464" stroke="black" stroke-width="2.1171"/>
<path d="M152.659 467.477C149.967 463.555 151.602 468.272 157.151 470.126C162.7 471.981 175.12 463.238 167.985 467.477" stroke="black" stroke-width="2.1171"/>
<path d="M179.397 452.857C177.812 448.352 178.819 454.761 184.369 456.616C189.918 458.47 201.545 444.165 195.467 450.788" stroke="black" stroke-width="2.1171"/>
<path d="M124.319 427.437C114.333 427.437 104.348 422.933 104.348 422.933C104.348 422.933 113.423 367.077 169.772 368.401C226.12 369.726 227.997 419.173 227.997 419.173C227.997 419.173 226.473 427.283 210.692 428.438C194.911 429.594 207.723 416.219 198.21 410.92C188.697 405.622 177.979 414.186 167.256 414.424C157.363 414.643 150.219 405.476 137.799 413.423C125.379 421.37 134.304 427.437 124.319 427.437Z" fill="#1E1E1E" stroke="#1F5644" stroke-width="0.529275"/>
<path d="M1 300.809C1 300.809 110.339 291.299 136.8 305.313C163.261 319.328 165.258 326.495 165.258 345.855C165.258 352.362 202.204 317.826 220.677 309.318C239.15 300.809 341 278.786 341 278.786" stroke="#2D4E71" stroke-width="3"/>
</svg>
